# xmcd
#
# Track frame offsets: 
#        150
#        17884
#        36365
#        55223
#        74399
#        104368
#        119742
#        134512
#        150554
#        169209
#
# Disc length: 2485 seconds
#
# Revision: 0
# Processed by: cddbd v1.5.2PL0 Copyright (c) Steve Scherf et al.
# Submitted via: ExactAudioCopyFreeDBPlugin 1.0
#
DISCID=9109b30a
DTITLE=Captain Overdrive - Nasty Boogie
DYEAR=2014
DGENRE=Funk
TTITLE0=Nasty Boogie
TTITLE1=B49
TTITLE2=City Lights
TTITLE3=Desertfunk
TTITLE4=Deep
TTITLE5=New Orleans
TTITLE6=Jane Janson
TTITLE7=Eaglemania
TTITLE8=Hurricane
TTITLE9=Bonus
EXTD=
EXTT0=
EXTT1=
EXTT2=
EXTT3=
EXTT4=
EXTT5=
EXTT6=
EXTT7=
EXTT8=
EXTT9=
PLAYORDER=
